<?xml version="1.0" encoding="UTF-8" standalone="no"?>
<svg xmlns="http://www.w3.org/2000/svg" width="24" height="24" viewBox="0 0 24 24">
  <rect width="24" height="24" rx="4" ry="4" fill="#FFFFFF"/>
  
  <path d="M2 4 L22 4 M2 8 L22 8 M2 12 L22 12 M2 16 L22 16 M2 20 L22 20 M4 2 L4 22 M8 2 L8 22 M12 2 L12 22 M16 2 L16 22 M20 2 L20 22" 
        stroke="#E0E0E0" stroke-width="0.4" fill="none" stroke-dasharray="0.5,0.5"/>

  <path d="M12 6L6 16" stroke="#BDBDBD" stroke-width="1.5" fill="none"/>
  
  <path d="M12 6L18 16" stroke="#BDBDBD" stroke-width="1.5" fill="none"/>
  
  <path d="M6 16L18 16" stroke="#BDBDBD" stroke-width="1.5" fill="none"/>
  
  <circle cx="12" cy="6" r="3" fill="#4285F4"/>
  <circle cx="6" cy="16" r="3" fill="#EA4335"/>
  <circle cx="18" cy="16" r="3" fill="#34A853"/>
</svg>